<svg width="25" height="21" viewBox="0 0 25 21" fill="none" xmlns="http://www.w3.org/2000/svg">
<path d="M25 10.5938C25 10.5938 20.3125 2 12.5 2C4.6875 2 0 10.5938 0 10.5938C0 10.5938 4.6875 19.1875 12.5 19.1875C20.3125 19.1875 25 10.5938 25 10.5938ZM1.83281 10.5938C2.5883 9.44551 3.45725 8.37607 4.42656 7.40156C6.4375 5.3875 9.1875 3.5625 12.5 3.5625C15.8125 3.5625 18.5609 5.3875 20.575 7.40156C21.5443 8.37607 22.4133 9.44551 23.1688 10.5938C23.0781 10.7297 22.9781 10.8797 22.8641 11.0437C22.3406 11.7937 21.5672 12.7938 20.575 13.7859C18.5609 15.8 15.8109 17.625 12.5 17.625C9.1875 17.625 6.43906 15.8 4.425 13.7859C3.4557 12.8114 2.58675 11.742 1.83125 10.5938H1.83281Z" fill="#0DA54B"/>
<path d="M12.5 6.6875C11.464 6.6875 10.4704 7.09905 9.73786 7.83161C9.0053 8.56418 8.59375 9.55775 8.59375 10.5938C8.59375 11.6298 9.0053 12.6233 9.73786 13.3559C10.4704 14.0884 11.464 14.5 12.5 14.5C13.536 14.5 14.5296 14.0884 15.2621 13.3559C15.9947 12.6233 16.4062 11.6298 16.4062 10.5938C16.4062 9.55775 15.9947 8.56418 15.2621 7.83161C14.5296 7.09905 13.536 6.6875 12.5 6.6875ZM7.03125 10.5938C7.03125 9.14335 7.60742 7.75235 8.63301 6.72676C9.6586 5.70117 11.0496 5.125 12.5 5.125C13.9504 5.125 15.3414 5.70117 16.367 6.72676C17.3926 7.75235 17.9687 9.14335 17.9688 10.5938C17.9688 12.0442 17.3926 13.4352 16.367 14.4607C15.3414 15.4863 13.9504 16.0625 12.5 16.0625C11.0496 16.0625 9.6586 15.4863 8.63301 14.4607C7.60742 13.4352 7.03125 12.0442 7.03125 10.5938Z" fill="#0DA54B"/>
<line x1="18.3497" y1="1.11148" x2="5.08478" y2="18.7888" stroke="#0DA54B" stroke-width="1.5" stroke-linecap="round"/>
<line x1="18.7894" y1="3.05009" x2="6.83895" y2="18.9634" stroke="white" stroke-width="1.5" stroke-linecap="round"/>
</svg>
